<svg version="1.1" id="Layer_1" xmlns="http://www.w3.org/2000/svg" xmlns:xlink="http://www.w3.org/1999/xlink" x="0px" y="0px"
	 width="100%" viewBox="0 0 1024 736" enable-background="new 0 0 1024 736" xml:space="preserve">
<path fill="#000000" opacity="1.000000" stroke="none" 
	d="
M493.779297,12.727901 
	C501.456543,6.168483 508.264465,7.125205 516.305908,12.350345 
	C530.399231,21.507902 545.299377,29.416668 559.751343,38.033451 
	C564.179077,40.673401 568.611511,42.073437 573.867310,41.999516 
	C591.362244,41.753452 608.864136,42.022900 626.360168,41.821281 
	C630.596130,41.772472 633.060547,43.318581 635.106323,46.915989 
	C643.918213,62.411259 653.064758,77.716843 661.815186,93.246025 
	C664.390076,97.815643 667.848877,100.950874 672.323303,103.495399 
	C687.528748,112.142456 702.547180,121.119148 717.783203,129.710938 
	C721.756958,131.951828 723.347229,134.563614 723.272583,139.218246 
	C722.986572,157.045547 723.186096,174.880112 723.071960,192.711121 
	C723.047729,196.506287 723.901428,199.817673 725.847534,203.113815 
	C735.926331,220.184921 745.744446,237.410446 755.887390,254.442825 
	C758.129883,258.208557 758.192139,261.092194 755.892822,264.918365 
	C745.768127,281.766510 736.028687,298.845703 726.011475,315.759338 
	C723.983154,319.184052 723.015503,322.611664 723.045837,326.607452 
	C723.183777,344.771393 723.026550,362.937683 723.188171,381.101257 
	C723.222107,384.913605 721.919250,387.200226 718.608093,389.091858 
	C702.408447,398.346252 686.351807,407.850616 670.178345,417.151398 
	C667.036743,418.958038 664.699829,421.243591 662.885254,424.400360 
	C653.586853,440.576050 644.067017,456.624634 634.807739,472.822388 
	C632.910522,476.141174 630.616638,477.406647 626.811890,477.374939 
	C608.481567,477.222168 590.148987,477.365051 571.817749,477.279785 
	C568.351562,477.263641 565.352356,478.119263 562.370056,479.868866 
	C544.839722,490.153107 527.191162,500.236572 509.709229,510.601562 
	C506.378479,512.576355 503.877350,512.492004 500.592834,510.544647 
	C483.541656,500.434967 466.310699,490.628723 449.246521,480.540588 
	C445.365204,478.246033 441.476898,477.208649 436.969147,477.249634 
	C419.138916,477.411652 401.305176,477.210114 383.475555,477.402496 
	C379.616058,477.444122 377.406250,476.099457 375.531769,472.819336 
	C366.356934,456.764221 356.919159,440.859344 347.742218,424.805389 
	C345.662445,421.167053 342.845917,418.716064 339.274872,416.669342 
	C323.230988,407.473633 307.317627,398.049957 291.265625,388.868622 
	C288.444305,387.254913 287.418304,385.450867 287.453583,382.149109 
	C287.649353,363.829742 287.502808,345.507019 287.628326,327.186462 
	C287.655640,323.199707 286.700653,319.722504 284.678314,316.303955 
	C274.415497,298.955780 264.339844,281.496643 254.030182,264.176605 
	C252.066696,260.878021 252.192825,258.339722 254.153778,255.042877 
	C264.457977,237.718964 274.464233,220.218140 284.691376,202.847900 
	C286.808807,199.251541 287.444824,195.650070 287.377747,191.462585 
	C287.086731,173.303177 287.219971,155.137207 287.149658,136.973816 
	C287.138031,133.963150 288.495087,132.145386 291.090576,130.653214 
	C306.834076,121.602112 322.457947,112.342598 338.217438,103.319748 
	C342.518402,100.857254 345.865814,97.876144 348.367035,93.446648 
	C357.130859,77.926430 366.389709,62.685631 375.144501,47.160492 
	C377.434967,43.098709 380.165771,41.744022 384.701782,41.801888 
	C402.697296,42.031441 420.697510,41.865486 438.695496,41.950241 
	C441.967468,41.965652 444.873871,41.294815 447.712952,39.623848 
	C462.931580,30.666714 478.208435,21.808474 493.779297,12.727901 
M385.607391,427.825470 
	C409.514313,441.728302 433.434448,455.608551 457.308838,469.567017 
	C459.850220,471.052917 462.399200,471.745514 465.340790,471.738220 
	C492.006256,471.671814 518.671997,471.669159 545.337463,471.723328 
	C548.113098,471.728973 550.507080,471.037781 552.891296,469.647522 
	C590.169189,447.910278 627.465820,426.205078 664.796082,404.557892 
	C667.776794,402.829407 670.044983,400.672455 671.781433,397.675110 
	C683.724426,377.059967 695.737976,356.485382 707.817017,335.949646 
	C709.338379,333.363129 709.701050,330.718445 709.699036,327.835175 
	C709.667664,282.336975 709.656311,236.838745 709.710022,191.340591 
	C709.713684,188.236374 709.073853,185.524109 707.486572,182.823471 
	C695.582642,162.570297 683.736572,142.282700 671.993591,121.935959 
	C670.171753,118.779350 667.839417,116.488983 664.707703,114.675827 
	C627.077026,92.888710 589.480591,71.042236 551.904114,49.161697 
	C549.638916,47.842690 547.335815,47.379322 544.769897,47.382938 
	C518.437683,47.420059 492.105316,47.430801 465.773163,47.368668 
	C462.831146,47.361725 460.297485,48.071690 457.750366,49.556751 
	C420.041779,71.542336 382.296570,93.465134 344.542786,115.373116 
	C342.478058,116.571251 340.767639,117.971680 339.540222,120.087143 
	C327.416199,140.982056 315.257965,161.857224 303.047943,182.701981 
	C301.645050,185.096909 301.034760,187.551193 301.036194,190.294144 
	C301.059967,236.458923 301.060120,282.623718 301.027832,328.788513 
	C301.025787,331.705017 301.649048,334.327118 303.139282,336.865936 
	C315.199921,357.412933 327.223145,377.982086 339.185059,398.586731 
	C340.585480,400.998962 342.457825,402.659576 344.829498,404.032867 
	C358.237946,411.796997 371.599121,419.642700 385.607391,427.825470 
M287.111969,307.348267 
	C287.272980,304.696045 287.570221,302.044006 287.573944,299.391571 
	C287.611267,272.768951 287.612305,246.146225 287.584839,219.523575 
	C287.582031,216.817947 287.325531,214.112579 287.118988,210.085419 
	C277.508789,226.610535 268.596283,241.980057 259.623077,257.314056 
	C258.401855,259.400940 259.092957,261.091461 260.140656,262.885132 
	C263.831940,269.204559 267.364075,275.621124 271.200714,281.850494 
	C276.490479,290.439148 280.682037,299.691071 287.111969,307.348267 
M723.125366,239.500000 
	C723.125366,262.075836 723.125366,284.651672 723.125366,307.956055 
	C724.210999,307.011536 724.667358,306.775330 724.886841,306.400391 
	C733.472168,291.735565 741.996704,277.034943 750.640442,262.404785 
	C752.109192,259.918823 751.226562,258.060730 749.994934,255.959686 
	C741.990906,242.304993 734.055359,228.610153 726.041138,214.961472 
	C725.380676,213.836716 725.083130,212.227676 723.128540,211.710556 
	C723.128540,220.852692 723.128540,229.676346 723.125366,239.500000 
M628.109558,47.958366 
	C626.974792,47.771599 625.840515,47.425270 624.705261,47.422344 
	C610.891052,47.386776 597.076599,47.386845 583.262390,47.422794 
	C581.577637,47.427177 579.893555,47.694756 577.049744,47.940586 
	C603.228882,63.182343 628.316406,77.788536 653.403992,92.394730 
	C653.724976,92.106857 654.045959,91.818985 654.366943,91.531120 
	C645.819275,77.165596 637.271606,62.800068 628.109558,47.958366 
M400.549866,67.023224 
	C411.262421,60.751167 421.974945,54.479107 432.687500,48.207047 
	C417.237732,47.398426 401.985748,47.511238 386.737640,47.317219 
	C383.036041,47.270115 380.975250,48.679771 379.236389,51.759762 
	C373.105011,62.620003 366.768555,73.364365 360.531036,84.164902 
	C359.161957,86.535515 357.880066,88.956490 356.558044,91.354271 
	C356.805084,91.593300 357.052155,91.832329 357.299225,92.071350 
	C371.506500,83.846703 385.713806,75.622055 400.549866,67.023224 
M595.501831,471.701202 
	C604.983643,471.701324 614.467651,471.585693 623.946106,471.763275 
	C627.338745,471.826843 629.367615,470.757568 631.074768,467.689789 
	C637.138306,456.793427 643.518188,446.073090 649.783752,435.289276 
	C651.277832,432.717773 652.793457,430.158752 654.299133,427.593964 
	C654.019531,427.381042 653.739929,427.168091 653.460266,426.955170 
	C628.422791,441.522980 603.385376,456.090790 578.347900,470.658630 
	C578.459717,471.006073 578.571533,471.353546 578.683350,471.700989 
	C583.956665,471.700989 589.230042,471.700989 595.501831,471.701202 
M412.333740,459.224274 
	C393.727905,448.407776 375.122040,437.591278 356.516205,426.774750 
	C364.120270,441.383087 372.240784,455.337616 380.363800,469.290710 
	C381.151642,470.643982 382.126221,471.666992 383.880890,471.665100 
	C399.957275,471.647552 416.033661,471.654785 433.613556,471.654785 
	C425.843292,467.104004 419.411560,463.337158 412.333740,459.224274 
M500.500153,477.317078 
	C491.205933,477.317078 481.911682,477.317078 472.617462,477.317078 
	C481.028137,483.284729 489.685394,487.919037 497.860413,493.287628 
	C503.179626,496.780792 507.407379,496.656525 512.679688,493.144165 
	C520.722900,487.785828 529.300354,483.229462 537.650879,478.332550 
	C537.536926,477.993622 537.422913,477.654724 537.308960,477.315796 
	C525.372681,477.315796 513.436462,477.315796 500.500153,477.317078 
M510.500000,41.913120 
	C519.412903,41.913120 528.325806,41.913120 537.238647,41.913120 
	C527.981201,35.316952 518.384521,29.846407 508.942413,24.120964 
	C506.093536,22.393473 503.880798,22.674902 501.172607,24.303225 
	C493.193878,29.100552 485.069458,33.654953 477.037048,38.364140 
	C475.729401,39.130768 474.099457,39.659855 473.019653,41.912148 
	C485.611603,41.912148 497.555817,41.912148 510.500000,41.913120 
M691.545532,389.008728 
	C696.577881,386.067230 701.607971,383.121948 706.643799,380.186462 
	C708.270569,379.238190 709.678833,378.237213 709.668091,376.012573 
	C709.619507,365.948486 709.646851,355.884033 709.646851,345.819733 
	C709.349548,345.756714 709.052246,345.693695 708.754944,345.630676 
	C699.345520,361.831360 689.936157,378.032043 680.526794,394.232727 
	C680.721069,394.444458 680.915344,394.656219 681.109558,394.867950 
	C684.380493,393.042969 687.651428,391.217987 691.545532,389.008728 
M709.673523,159.491562 
	C709.669983,154.500488 709.648804,149.509338 709.671814,144.518387 
	C709.680481,142.628952 709.577942,140.835938 707.690125,139.744919 
	C698.970215,134.705292 690.253845,129.659409 681.536133,124.615784 
	C681.254456,124.879082 680.972717,125.142380 680.690979,125.405678 
	C690.024048,141.482773 699.357056,157.559875 708.690125,173.636978 
	C709.018188,173.530685 709.346252,173.424393 709.674316,173.318100 
	C709.674316,169.040390 709.674316,164.762665 709.673523,159.491562 
M320.450745,378.001770 
	C314.319763,367.488953 308.188782,356.976105 302.057800,346.463257 
	C300.993042,352.448029 301.001129,358.061279 300.991486,363.674530 
	C300.965210,378.963928 300.962738,378.963074 314.340576,386.447083 
	C319.143829,389.134155 323.944244,391.826477 328.745972,394.516418 
	C328.988342,394.218994 329.230713,393.921570 329.473083,393.624146 
	C326.592560,388.623779 323.712036,383.623413 320.450745,378.001770 
M307.704865,163.229324 
	C314.978668,150.671387 322.252472,138.113449 329.526245,125.555504 
	C322.281403,128.406662 316.160339,132.478531 309.574707,135.556259 
	C302.789703,138.727173 300.068604,143.135208 300.876129,150.731171 
	C301.630646,157.828415 301.037476,165.068939 301.037476,172.246399 
	C301.442352,172.290909 301.847229,172.335419 302.252106,172.379944 
	C303.949219,169.541275 305.646332,166.702621 307.704865,163.229324 
z"/>
<path fill="#000000" opacity="1.000000" stroke="none" 
	d="
M572.241699,732.558105 
	C571.001099,729.097168 573.288208,729.096558 575.309937,728.887573 
	C586.709229,727.708740 589.945984,724.278931 590.698486,712.869446 
	C592.672791,682.934143 591.328003,652.966309 591.547546,623.014893 
	C591.592346,616.903564 590.614502,610.760315 589.797363,604.673401 
	C588.773865,597.049255 585.003967,593.774841 577.174500,593.179382 
	C576.014771,593.091187 574.839050,593.088196 573.700256,592.882629 
	C572.398865,592.647827 571.604980,591.779968 571.767761,590.413330 
	C571.908691,589.230469 572.861572,588.834229 573.938293,588.782898 
	C575.101685,588.727295 576.267517,588.704346 577.432312,588.703857 
	C590.587341,588.698181 603.742432,588.691956 616.897461,588.701538 
	C626.948730,588.708862 636.744995,590.301086 646.309937,593.398010 
	C660.728455,598.066223 668.380005,606.834473 669.243042,619.770081 
	C670.111450,632.784424 663.358276,643.559692 650.309082,649.902466 
	C647.786682,651.128540 645.198914,652.220093 642.057861,653.636841 
	C648.312500,656.048767 654.210693,657.684998 659.686584,660.491516 
	C681.031067,671.431274 683.303894,694.737061 675.255432,710.582947 
	C668.802063,723.288391 656.699524,728.114258 643.723022,731.140320 
	C634.920837,733.192871 625.949280,733.523071 616.937317,733.313721 
	C602.138428,732.969788 587.325256,733.881470 572.241699,732.558105 
M608.065491,663.825256 
	C608.083862,677.639099 608.115784,691.452881 608.112854,705.266724 
	C608.111877,709.775330 608.405334,714.260559 609.368530,718.661804 
	C610.710266,724.792908 613.773132,727.229065 619.964722,726.566589 
	C624.739807,726.055664 629.530884,725.217651 634.167603,723.975464 
	C650.984863,719.469971 659.731323,708.203125 659.640381,691.579956 
	C659.554199,675.829468 650.475769,664.922852 633.781860,660.542786 
	C627.150208,658.802795 620.350464,658.409668 613.550781,657.836060 
	C609.403381,657.486145 607.544312,658.685059 608.065491,663.825256 
M628.661804,649.296204 
	C630.216064,648.707825 631.804321,648.195679 633.319031,647.518738 
	C644.230957,642.641907 649.258118,633.918335 649.551270,622.253113 
	C649.816895,611.683594 644.358887,603.973511 633.435242,599.432800 
	C626.752625,596.655029 619.575317,596.203491 612.497375,595.352417 
	C609.344238,594.973328 607.998413,596.315125 608.019165,599.599060 
	C608.120117,615.561462 608.124512,631.524902 608.049500,647.487427 
	C608.033936,650.810730 609.520020,652.057617 612.608948,651.656067 
	C617.706848,650.993469 622.793396,650.242920 628.661804,649.296204 
z"/>
<path fill="#000000" opacity="1.000000" stroke="none" 
	d="
M8.649820,591.522217 
	C8.405951,588.167969 10.719205,588.733765 12.379972,588.729858 
	C31.197954,588.685120 50.029911,588.279846 68.829041,588.880920 
	C80.117599,589.241821 91.288628,591.271973 101.192368,597.633240 
	C111.454056,604.224426 116.048828,613.999390 117.197990,625.608093 
	C120.368195,657.632996 94.364136,674.375977 71.002243,673.280945 
	C62.179775,672.867371 53.526886,671.647766 45.116447,668.348328 
	C45.116447,681.301086 45.071972,693.719543 45.142193,706.137390 
	C45.164726,710.121887 45.593498,714.071655 46.290806,718.028931 
	C47.367004,724.136414 50.861355,727.416199 56.814861,728.345642 
	C58.456635,728.601990 60.118656,728.725952 61.767082,728.943237 
	C63.193451,729.131348 64.459015,729.669556 64.412758,731.347412 
	C64.361244,733.215942 62.816948,733.243713 61.491520,733.256165 
	C56.162979,733.306396 50.833858,733.305725 45.504955,733.305237 
	C34.347313,733.304321 23.189610,733.307739 12.032108,733.263916 
	C10.595120,733.258301 8.726071,733.500122 8.460577,731.464844 
	C8.248249,729.837219 9.654720,729.318237 11.022810,728.948853 
	C25.740559,724.975281 26.662584,723.815247 27.646843,709.122803 
	C29.496378,681.513916 28.487883,653.871765 28.548397,626.245178 
	C28.563610,619.300110 27.673653,612.309448 26.670002,605.416870 
	C25.448929,597.031189 22.412586,594.441711 13.946088,593.348206 
	C12.168778,593.118591 10.218852,593.458923 8.649820,591.522217 
M44.889080,634.499207 
	C44.887611,638.824646 44.886890,643.150024 44.884548,647.475464 
	C44.876183,662.940308 45.492363,663.835449 61.063118,665.588318 
	C74.289543,667.077148 86.776291,665.318970 94.261208,652.636536 
	C99.646812,643.511047 100.678139,633.291016 98.975677,622.736694 
	C97.111153,611.177795 91.168709,603.220642 79.996666,599.277588 
	C69.455750,595.557251 58.564766,595.004883 47.543312,595.350586 
	C44.468784,595.447021 44.819927,597.547852 44.826698,599.580688 
	C44.864349,610.886902 44.871681,622.193298 44.889080,634.499207 
z"/>
<path fill="#000000" opacity="1.000000" stroke="none" 
	d="
M997.269653,733.299377 
	C989.732117,733.108643 984.696350,729.054382 980.124573,724.304565 
	C974.542358,718.505127 970.559509,711.510681 966.078186,704.896240 
	C962.055176,698.958130 958.052734,693.004272 952.697632,688.146790 
	C950.384827,686.048767 948.119324,683.767639 944.854797,683.399658 
	C942.808228,684.536499 943.402283,686.377930 943.337891,687.947571 
	C942.948120,697.452148 943.626770,706.929565 944.292542,716.396606 
	C944.915344,725.252380 947.369812,727.681152 956.144104,728.813049 
	C957.890198,729.038269 960.337646,728.670715 960.163818,731.343079 
	C959.984253,734.103271 957.431274,733.250061 955.802979,733.258789 
	C941.972595,733.333130 928.141418,733.326294 914.310852,733.268250 
	C912.627014,733.261230 910.070068,733.964783 909.874878,731.357544 
	C909.644714,728.284180 912.442383,728.990479 914.274963,728.779968 
	C922.441589,727.841858 924.737549,725.788635 925.993408,717.882874 
	C926.409424,715.264099 926.722900,712.595947 926.727234,709.949768 
	C926.784546,674.956482 926.779663,639.963074 926.782898,604.969727 
	C926.783020,603.637451 926.781433,602.298340 926.656372,600.974060 
	C925.745300,591.321777 924.184509,589.717590 914.605103,588.345520 
	C912.769226,588.082520 910.000916,588.795410 910.018127,585.845825 
	C910.034546,583.028564 912.882385,583.406738 914.650208,583.198303 
	C922.091553,582.320923 929.564697,581.852783 937.064819,581.585754 
	C941.834290,581.415955 943.443542,582.912903 943.410095,587.775635 
	C943.221985,615.102722 943.308167,642.431824 943.342896,669.760193 
	C943.345337,671.710388 942.852722,673.756592 943.968628,675.645325 
	C946.051392,676.324463 947.977600,675.609802 949.752014,674.791077 
	C961.321045,669.452698 969.586914,660.900391 973.899170,648.870972 
	C975.876160,643.356018 974.782471,641.482300 969.424072,639.323425 
	C968.105408,638.792236 966.760132,638.394653 967.071716,636.687866 
	C967.373413,635.035706 968.865784,634.861694 970.211182,634.858398 
	C982.875061,634.827393 995.539062,634.818787 1008.202881,634.848694 
	C1009.556519,634.851929 1010.989014,635.126160 1011.064880,636.921143 
	C1011.139038,638.674744 1009.864075,639.252075 1008.438599,639.232178 
	C996.772827,639.068665 989.706360,646.642212 982.643616,654.348755 
	C974.807312,662.899414 967.964600,672.496521 956.490784,678.555176 
	C972.597412,684.477905 981.074768,697.103577 989.679688,709.670166 
	C996.090759,719.032898 1003.255798,727.547363 1015.665894,728.902222 
	C1017.090271,729.057739 1018.330139,729.691772 1018.215759,731.384888 
	C1018.090942,733.232117 1016.555237,733.246338 1015.231018,733.257019 
	C1009.399048,733.304016 1003.566528,733.293335 997.269653,733.299377 
z"/>
<path fill="#000000" opacity="1.000000" stroke="none" 
	d="
M540.372986,715.336426 
	C542.710022,722.780579 544.947510,723.899963 551.836060,721.584961 
	C553.597900,720.992920 555.877747,719.237427 557.036682,721.893921 
	C558.097229,724.324707 555.501770,725.276001 553.885620,726.246216 
	C546.801025,730.498901 539.075439,732.935608 530.923645,734.158325 
	C526.927490,734.757751 524.506470,733.590027 524.170898,729.191833 
	C523.780640,724.077087 523.195496,718.977234 522.603699,712.940918 
	C519.040100,718.846558 516.228027,724.289734 511.573883,728.369995 
	C501.795044,736.943054 490.585297,737.094849 479.208374,733.093018 
	C468.840729,729.446228 463.893158,721.170471 463.428314,710.388550 
	C462.924957,698.713501 467.841248,689.810181 478.000183,683.893982 
	C487.307556,678.473816 497.657227,676.871460 508.117462,675.694824 
	C510.760132,675.397583 513.414551,675.020325 516.064819,675.010437 
	C523.780090,674.981689 522.758789,673.945251 522.854492,667.344910 
	C522.944580,661.136841 522.177612,655.092834 519.909119,649.236145 
	C516.965820,641.637146 510.727814,639.488586 503.525085,639.406494 
	C496.802765,639.329834 491.687744,642.499939 488.836945,648.744812 
	C487.662292,651.317993 486.756744,654.011108 484.993011,656.276184 
	C482.023529,660.089783 477.212189,661.450317 473.476654,659.311157 
	C469.243103,656.886780 469.179443,652.857971 470.079865,648.781555 
	C470.662292,646.145020 472.287994,643.992981 474.325775,642.150513 
	C485.907318,631.679199 512.828125,629.765015 525.768677,638.481384 
	C535.383728,644.957825 538.904663,654.533936 539.206604,665.512695 
	C539.490295,675.831848 539.386536,686.166626 539.226990,696.491028 
	C539.131348,702.675842 539.970581,708.776489 540.372986,715.336426 
M522.528564,689.094727 
	C522.582397,687.433472 522.671753,685.772339 522.680725,684.110840 
	C522.690918,682.236084 521.707275,681.347229 519.844482,681.569397 
	C511.772644,682.532349 503.637024,683.190308 496.140106,686.795654 
	C485.175049,692.068970 479.698761,702.127075 481.319275,714.109131 
	C482.478210,722.678650 488.118073,727.325928 496.768921,726.921265 
	C502.724243,726.642639 506.964661,723.397827 510.703949,719.153931 
	C518.066223,710.798096 520.441162,700.455872 522.528564,689.094727 
z"/>
<path fill="#000000" opacity="1.000000" stroke="none" 
	d="
M897.996338,681.185303 
	C898.473694,698.221741 894.324951,713.255920 881.630371,724.564819 
	C859.802612,744.009766 824.140259,737.402588 810.549500,711.496216 
	C800.697021,692.715759 801.028687,673.590515 811.174805,655.086853 
	C820.313599,638.420166 835.319946,631.832581 853.864868,633.040466 
	C872.138977,634.230835 885.060852,643.623840 892.941162,659.968506 
	C896.077881,666.474365 897.686584,673.464111 897.996338,681.185303 
M857.098389,728.721741 
	C864.808044,727.041077 870.201721,722.407959 873.596863,715.441589 
	C880.536194,701.203064 882.020935,686.268311 879.188293,670.764893 
	C877.764832,662.973938 875.473999,655.568909 870.593506,649.208191 
	C858.854980,633.909485 836.523804,635.808899 828.125183,653.102356 
	C819.151184,671.580139 819.008301,690.845154 825.824036,709.885620 
	C831.252441,725.050354 841.058899,730.558044 857.098389,728.721741 
z"/>
<path fill="#000000" opacity="1.000000" stroke="none" 
	d="
M725.687134,635.443481 
	C758.918030,625.288940 788.787964,647.332886 789.330933,681.713440 
	C789.534424,694.595764 787.286255,706.674500 779.574707,717.143311 
	C759.488525,744.411255 717.864990,741.112732 701.504211,711.071350 
	C691.396912,692.512451 693.024841,660.361633 710.903809,644.314270 
	C715.194519,640.463074 719.891541,637.470642 725.687134,635.443481 
M731.744690,641.066284 
	C726.123718,643.481018 722.017578,647.622009 719.555847,653.060364 
	C710.362732,673.369995 709.985291,693.852417 719.330505,714.226013 
	C723.939819,724.275085 732.134460,729.466431 743.133728,729.375366 
	C753.843506,729.286804 761.531860,723.808472 765.729858,714.064331 
	C774.424194,693.883484 774.477966,673.575500 764.809692,653.749756 
	C758.442749,640.693604 746.434326,636.251343 731.744690,641.066284 
z"/>
<path fill="#000000" opacity="1.000000" stroke="none" 
	d="
M211.909821,693.556030 
	C211.044525,679.096252 212.208466,665.478943 219.644043,653.071838 
	C228.861542,637.691406 242.645020,631.405701 260.155182,633.224731 
	C277.585175,635.035461 287.977234,645.422974 293.254425,661.601807 
	C294.708527,666.059875 295.299164,670.680115 295.934082,675.298401 
	C296.520172,679.561279 295.481934,681.628174 290.424255,681.546997 
	C271.938446,681.250244 253.443924,681.532471 234.955597,681.330200 
	C230.427048,681.280762 228.830322,682.527466 229.062836,687.291687 
	C229.636978,699.055847 231.793930,710.120117 240.342361,718.940979 
	C252.482544,731.468018 274.714142,730.171814 285.467041,716.366943 
	C286.182922,715.447815 286.853210,714.491455 287.512573,713.530396 
	C288.613159,711.926208 289.952698,711.285217 291.735992,712.452942 
	C293.678040,713.724731 292.999634,715.195557 292.088287,716.753052 
	C287.348541,724.853149 280.688263,730.654480 271.616455,733.278931 
	C243.584732,741.388611 218.383331,726.009399 212.684692,697.430664 
	C212.456924,696.288452 212.209778,695.150024 211.909821,693.556030 
M271.687134,647.882202 
	C262.807251,636.257874 247.383011,636.020813 238.589951,647.582092 
	C232.905777,655.055786 230.702881,663.831970 229.881897,673.035645 
	C230.634644,673.349548 231.082657,673.698547 231.532120,673.700439 
	C245.833969,673.760620 260.135986,673.773132 274.437866,673.829651 
	C277.536469,673.841858 277.942047,671.896179 277.740479,669.497681 
	C277.123932,662.160217 275.857605,654.993103 271.687134,647.882202 
z"/>
<path fill="#000000" opacity="1.000000" stroke="none" 
	d="
M378.645142,719.352417 
	C372.431610,730.182373 362.264832,733.673767 351.257568,734.970703 
	C339.659485,736.337280 328.329620,735.076660 318.036346,728.694763 
	C315.492950,727.117859 314.178436,725.360840 314.500488,722.238464 
	C315.080048,716.619507 315.299347,710.963867 315.848755,705.341125 
	C316.015015,703.639893 316.072327,701.197998 318.532257,701.256592 
	C320.905426,701.313171 321.076294,703.546143 321.137604,705.409424 
	C321.658508,721.233154 336.520996,731.416931 352.987427,726.317627 
	C358.845337,724.503540 363.556824,721.150635 364.698090,714.613770 
	C365.861328,707.951355 363.578186,702.627563 358.129883,698.453064 
	C351.133514,693.092407 342.959290,690.208191 334.983337,686.892700 
	C320.298126,680.788269 312.387726,667.738403 315.294586,654.323792 
	C317.196747,645.545532 322.987976,640.063110 330.796875,636.637512 
	C344.782471,630.502197 358.761230,632.323608 372.613983,637.383362 
	C374.880646,638.211365 376.282379,639.793213 376.043060,642.293335 
	C375.378815,649.234009 374.663055,656.171204 373.819946,663.091797 
	C373.675018,664.281311 373.380676,665.975525 371.602112,665.964355 
	C369.629272,665.951965 369.354187,664.267578 369.080383,662.794006 
	C368.565216,660.021240 368.411438,657.150208 367.615509,654.465942 
	C363.992188,642.245789 350.301819,636.675720 339.024261,642.708496 
	C329.697083,647.698059 328.337799,660.450134 336.400452,667.661316 
	C342.750549,673.340820 350.737518,676.008484 358.336426,679.351562 
	C363.849243,681.776917 369.240387,684.303223 373.590912,688.637573 
	C381.777222,696.793518 383.608582,707.223267 378.645142,719.352417 
z"/>
<path fill="#000000" opacity="1.000000" stroke="none" 
	d="
M127.896103,639.427429 
	C124.695541,636.894714 126.014023,635.393982 128.786407,635.081604 
	C138.538925,633.982788 148.277176,632.584412 158.146622,632.950500 
	C161.206268,633.063965 162.173706,634.672791 162.149460,637.437195 
	C162.104385,642.575134 162.136536,647.713745 162.136536,654.261902 
	C165.505096,647.445679 168.114731,641.681274 173.413498,637.859436 
	C180.863770,632.485840 188.996826,630.528198 197.937881,633.043213 
	C203.888611,634.717102 206.449860,639.113647 204.798447,644.305420 
	C203.222839,649.258850 198.177567,651.637817 192.625656,649.803711 
	C190.110092,648.972717 187.790497,647.567444 185.318329,646.582520 
	C179.011200,644.069824 174.878067,645.264160 171.151947,650.997192 
	C166.314148,658.440674 164.559006,666.993530 163.429901,675.576782 
	C161.579376,689.644226 161.707367,703.774353 163.276840,717.886475 
	C164.161591,725.841919 166.746048,728.370239 174.630707,728.873474 
	C176.543823,728.995605 179.243317,728.509155 179.143585,731.400696 
	C179.050003,734.114014 176.391434,733.243164 174.763626,733.252136 
	C161.102982,733.327637 147.441498,733.332153 133.780945,733.248108 
	C132.018860,733.237305 129.169388,734.107117 129.158661,731.094055 
	C129.149841,728.603882 131.705338,729.012573 133.452911,728.871704 
	C141.541367,728.219849 144.508942,726.213928 145.167679,715.824280 
	C146.473190,695.233948 146.742935,674.513550 144.967346,653.948975 
	C143.958679,642.266724 142.199020,641.716797 127.896103,639.427429 
z"/>
<path fill="#000000" opacity="1.000000" stroke="none" 
	d="
M419.045105,613.265198 
	C419.941803,610.600708 421.567871,609.731567 423.840942,610.324463 
	C426.155182,610.928101 426.113312,612.946045 426.133362,614.780579 
	C426.187988,619.778442 426.372986,624.786499 426.131226,629.772339 
	C425.937164,633.774597 427.568176,635.066345 431.403534,634.890015 
	C436.391144,634.660645 441.397552,634.836853 446.395874,634.845886 
	C448.713898,634.850098 450.878784,635.164490 450.967865,638.160339 
	C451.063080,641.364441 448.732208,641.361755 446.483704,641.366272 
	C441.318756,641.376648 436.149811,641.496277 430.990265,641.330444 
	C427.708893,641.225098 426.121643,642.158020 426.139984,645.795837 
	C426.261780,669.953796 426.164154,694.112854 426.299805,718.270691 
	C426.337463,724.977356 429.902710,727.630310 436.374390,726.164612 
	C439.937988,725.357483 443.438293,724.266418 446.957428,723.269226 
	C448.264526,722.898804 449.640839,722.364197 450.493683,723.893372 
	C451.333252,725.398621 450.381165,726.489014 449.184387,727.203918 
	C440.621368,732.318787 431.660889,736.240234 421.367737,735.221985 
	C414.674744,734.559875 410.682800,730.223450 410.008911,722.766724 
	C409.605255,718.300232 409.753906,713.778809 409.750885,709.281982 
	C409.737274,688.955322 409.763062,668.628723 409.763702,648.302063 
	C409.763916,641.533081 409.747467,641.577148 402.970337,641.346252 
	C401.104095,641.282654 398.651825,642.070435 397.897827,639.410950 
	C397.386139,637.606079 397.428741,635.213318 399.869080,635.069519 
	C413.467133,634.268005 416.540314,624.305054 419.045105,613.265198 
z"/>
<path fill="#000000" opacity="1.000000" stroke="none" 
	d="
M471.714233,197.174164 
	C471.376160,194.245117 471.222809,191.742538 470.713379,189.314682 
	C468.990936,181.105362 465.545990,178.129608 457.149231,177.275742 
	C454.964478,177.053558 452.338196,177.737518 451.243042,174.745758 
	C452.521545,172.440323 454.718262,173.078751 456.570465,173.097122 
	C477.054810,173.300308 497.555054,172.354187 518.022034,173.715103 
	C531.892395,174.637405 545.056519,177.603439 555.433350,187.873917 
	C570.420349,202.707230 571.913818,238.670578 545.343079,254.741760 
	C531.012085,263.409790 515.937683,262.935516 500.451172,259.824005 
	C496.728546,259.076050 493.090424,257.907166 489.135986,256.858276 
	C487.812744,268.672089 488.527100,280.272034 489.077606,291.860443 
	C489.345215,297.494598 489.070496,303.137207 490.244812,308.759064 
	C492.148895,317.874390 495.333527,320.969055 504.564178,321.772430 
	C506.573669,321.947296 509.059143,321.316254 510.341553,325.720581 
	C490.405670,326.143494 470.976959,325.990295 451.661987,325.861603 
	C451.261353,322.382599 452.876007,322.202118 454.343018,321.918457 
	C468.550293,319.171356 470.699066,317.156830 471.549591,303.001068 
	C473.328979,273.385284 472.899139,243.736145 472.217163,214.093170 
	C472.090973,208.606293 471.897919,203.120956 471.714233,197.174164 
M498.480377,179.311203 
	C496.482086,179.311615 494.479034,179.399643 492.486664,179.291245 
	C489.726105,179.141083 488.751068,180.205490 488.749359,183.084000 
	C488.737122,203.891312 488.611206,224.699112 488.378235,245.505173 
	C488.342468,248.699829 489.584290,250.149567 492.484253,251.335266 
	C499.083771,254.033569 505.990417,255.143188 512.953796,255.360138 
	C527.963806,255.827759 541.309326,248.940277 545.862305,233.340057 
	C548.440552,224.506165 548.303040,215.591660 546.966064,206.643280 
	C545.319092,195.620056 539.032288,188.358734 528.739624,184.178024 
	C519.286865,180.338486 509.465179,179.246445 498.480377,179.311203 
z"/>
</svg>